<?xml version="1.0" encoding="utf-8"?>
<!-- Generator: Adobe Illustrator 16.0.0, SVG Export Plug-In . SVG Version: 6.00 Build 0)  -->
<!DOCTYPE svg PUBLIC "-//W3C//DTD SVG 1.1//EN" "http://www.w3.org/Graphics/SVG/1.1/DTD/svg11.dtd">
<svg version="1.1" id="Layer_1" xmlns:sketch="http://www.bohemiancoding.com/sketch/ns"
	 xmlns="http://www.w3.org/2000/svg" xmlns:xlink="http://www.w3.org/1999/xlink" x="0px" y="0px" width="121.374px"
	 height="118.542px" viewBox="3.194 3.12 121.374 118.542" enable-background="new 3.194 3.12 121.374 118.542"
	 xml:space="preserve">
<title>octocat 2</title>
<desc>Created with Sketch.</desc>
<g id="Page-1" sketch:type="MSPage">
	<g id="Black-Octocat" sketch:type="MSLayerGroup">
		<path id="Fill-4" sketch:type="MSShapeGroup" fill="#161614" d="M63.881,3.12C30.37,3.12,3.194,30.328,3.194,63.893
			c0,26.85,17.389,49.629,41.501,57.666c3.033,0.562,4.146-1.32,4.146-2.925c0-1.449-0.056-6.236-0.083-11.313
			c-16.883,3.676-20.446-7.171-20.446-7.171c-2.76-7.024-6.738-8.892-6.738-8.892c-5.506-3.771,0.416-3.695,0.416-3.695
			c6.094,0.43,9.303,6.264,9.303,6.264c5.413,9.291,14.197,6.604,17.66,5.051c0.545-3.928,2.118-6.607,3.854-8.125
			c-13.479-1.537-27.65-6.748-27.65-30.034c0-6.635,2.371-12.057,6.253-16.312c-0.63-1.53-2.707-7.711,0.588-16.082
			c0,0,5.096-1.633,16.693,6.229c4.841-1.347,10.032-2.022,15.189-2.044c5.158,0.022,10.353,0.698,15.204,2.044
			c11.583-7.862,16.672-6.229,16.672-6.229c3.304,8.371,1.226,14.552,0.595,16.082c3.891,4.256,6.246,9.677,6.246,16.312
			c0,23.341-14.197,28.481-27.711,29.985c2.178,1.885,4.116,5.584,4.116,11.254c0,8.131-0.07,14.676-0.07,16.677
			c0,1.618,1.093,3.513,4.169,2.916c24.1-8.044,41.467-30.817,41.467-57.657C124.568,30.328,97.396,3.12,63.881,3.12"/>
		<path id="Fill-5" sketch:type="MSShapeGroup" fill="#161614" d="M25.924,90.697c-0.134,0.301-0.608,0.393-1.04,0.184
			c-0.44-0.197-0.688-0.609-0.545-0.912c0.131-0.311,0.606-0.396,1.045-0.189C25.825,89.979,26.076,90.394,25.924,90.697"/>
		<path id="Fill-6" sketch:type="MSShapeGroup" fill="#161614" d="M28.909,93.364c-0.29,0.269-0.855,0.144-1.239-0.28
			c-0.397-0.425-0.472-0.99-0.178-1.264c0.299-0.27,0.847-0.143,1.246,0.28C29.134,92.529,29.211,93.092,28.909,93.364"/>
		<path id="Fill-7" sketch:type="MSShapeGroup" fill="#161614" d="M30.957,96.776c-0.372,0.26-0.979,0.017-1.355-0.523
			c-0.372-0.54-0.372-1.188,0.008-1.448c0.376-0.26,0.975-0.027,1.356,0.51C31.336,95.863,31.336,96.512,30.957,96.776"/>
		<path id="Fill-8" sketch:type="MSShapeGroup" fill="#161614" d="M34.42,100.729c-0.333,0.367-1.042,0.269-1.56-0.233
			c-0.531-0.489-0.678-1.186-0.345-1.553c0.337-0.367,1.049-0.264,1.572,0.232C34.614,99.666,34.775,100.365,34.42,100.729"/>
		<path id="Fill-9" sketch:type="MSShapeGroup" fill="#161614" d="M38.896,102.063c-0.147,0.476-0.829,0.692-1.517,0.491
			c-0.687-0.209-1.136-0.767-0.997-1.247c0.143-0.479,0.828-0.705,1.521-0.489C38.589,101.025,39.039,101.58,38.896,102.063"/>
		<path id="Fill-10" sketch:type="MSShapeGroup" fill="#161614" d="M43.99,102.629c0.018,0.502-0.566,0.918-1.287,0.926
			c-0.726,0.017-1.312-0.389-1.32-0.882c0-0.507,0.57-0.919,1.295-0.929C43.399,101.729,43.99,102.131,43.99,102.629"/>
		<path id="Fill-11" sketch:type="MSShapeGroup" fill="#161614" d="M48.995,102.438c0.086,0.488-0.415,0.99-1.132,1.125
			c-0.705,0.129-1.357-0.174-1.446-0.658c-0.088-0.502,0.423-1.003,1.126-1.133C48.261,101.646,48.904,101.939,48.995,102.438"/>
	</g>
</g>
</svg>
